<?xml version="1.0" standalone="no"?><!DOCTYPE svg PUBLIC "-//W3C//DTD SVG 1.1//EN" "http://www.w3.org/Graphics/SVG/1.1/DTD/svg11.dtd"><svg t="1783673041212" class="icon" viewBox="0 0 1024 1024" version="1.1" xmlns="http://www.w3.org/2000/svg" p-id="15144" xmlns:xlink="http://www.w3.org/1999/xlink" width="128" height="128"><path d="M208.979592 1024h606.040816c115.461224 0 208.979592-93.518367 208.979592-208.979592V208.979592C1024 93.518367 930.481633 0 815.020408 0H208.979592C93.518367 0 0 93.518367 0 208.979592v606.040816c0 115.461224 93.518367 208.979592 208.979592 208.979592z" fill="#891B26" p-id="15145"></path><path d="M194.76898 515.866122L452.022857 961.306122H229.877551c-92.36898 0-167.183673-74.814694-167.183673-167.183673v-52.244898zM500.192653 961.306122L219.010612 474.383673l70.426123-120.372244L640 961.306122zM313.678367 312.52898l70.321633-120.372245L826.409796 958.171429c-10.44898 2.089796-21.211429 3.134694-32.287347 3.134693H688.274286z m94.667755-161.854694L459.755102 62.693878h37.616327l454.426122 787.121632c-14.733061 41.795918-45.557551 75.859592-84.950204 94.876735zM545.541224 62.693878H794.122449c92.36898 0 167.183673 74.814694 167.183673 167.183673v552.96z" fill="#FFA667" p-id="15146"></path></svg>